<svg width="47" height="51" viewBox="0 0 47 51" fill="none" xmlns="http://www.w3.org/2000/svg">
<g clip-path="url(#clip0_200_6)">
<path d="M42.9772 14.2863C42.7733 13.2953 42.3337 12.3796 41.702 11.6305C41.0704 10.8813 40.2688 10.3249 39.3773 10.0167C36.2121 9.00781 23.5001 9.00781 23.5001 9.00781C23.5001 9.00781 10.7866 9.00781 7.617 10.0167C6.72623 10.3256 5.92558 10.8823 5.29475 11.6314C4.66393 12.3805 4.22494 13.2959 4.0215 14.2863C3.43568 18.125 3.15168 22.0107 3.17256 25.9016C3.15068 29.7988 3.43468 33.691 4.0215 37.5359C4.22643 38.5177 4.66673 39.4232 5.29786 40.161C5.92898 40.8987 6.72851 41.4424 7.61553 41.7371C10.7866 42.7459 23.4986 42.7459 23.4986 42.7459C23.4986 42.7459 36.2121 42.7459 39.3817 41.7371C40.2689 41.4426 41.0688 40.899 41.7002 40.1613C42.3316 39.4235 42.7721 38.5179 42.9772 37.5359C43.5633 33.6952 43.8473 29.8073 43.8261 25.9143C43.8473 22.0213 43.5633 18.1334 42.9772 14.2927V14.2863ZM19.342 33.0416V18.7743L29.967 25.9016L19.342 33.0416Z" fill="#191919"/>
</g>
<defs>
<clipPath id="clip0_200_6">
<rect width="47" height="51" fill="white"/>
</clipPath>
</defs>
</svg>
