<svg width="41" height="41" viewBox="0 0 41 41" fill="none" xmlns="http://www.w3.org/2000/svg">
<g clip-path="url(#clip0_200_9)">
<path fill-rule="evenodd" clip-rule="evenodd" d="M20.5 4.05524C23.2349 3.9522 25.9737 4.02353 28.6991 4.26878C30.0211 4.25255 31.3345 4.47854 32.571 4.93502C34.2769 5.71064 35.6479 7.0482 36.4429 8.71251C36.9108 9.9189 37.1425 11.2002 37.1258 12.49C37.1258 14.4909 37.3447 15.1571 37.3447 20.4892C37.4503 23.1573 37.3772 25.8294 37.1258 28.4883C37.1425 29.7781 36.9108 31.0594 36.4429 32.2658C35.6479 33.9301 34.2769 35.2677 32.571 36.0433C31.3345 36.4998 30.0211 36.7258 28.6991 36.7095C26.6482 36.7095 25.9653 36.9231 20.5 36.9231C17.7651 37.0261 15.0262 36.9548 12.3008 36.7095C10.9788 36.7258 9.66545 36.4998 8.4289 36.0433C6.72299 35.2677 5.35198 33.9301 4.55697 32.2658C4.08909 31.0594 3.85744 29.7781 3.87408 28.4883C3.87408 26.4874 3.6552 25.8212 3.6552 20.4892C3.54959 17.821 3.6227 15.1489 3.87408 12.49C3.85744 11.2002 4.08909 9.9189 4.55697 8.71251C4.9553 7.89206 5.49417 7.14391 6.1504 6.50026C6.6849 5.72326 7.49743 5.1689 8.4289 4.9457C9.66531 4.48849 10.9787 4.26177 12.3008 4.27732C15.0262 4.03208 17.7651 3.96074 20.5 4.06378M20.5 0.49983C17.6892 0.399154 14.8748 0.470473 12.0732 0.713368C10.3604 0.712034 8.66176 1.01598 7.06093 1.61023C5.67855 2.05024 4.42745 2.81338 3.41663 3.83316C2.37135 4.81933 1.58913 6.03992 1.13812 7.38858C0.419931 8.91873 0.103981 10.5994 0.218837 12.2786C-0.030131 15.0119 -0.103233 17.7577 -3.98196e-05 20.4998C-0.103325 23.2427 -0.0302225 25.9892 0.218837 28.7232C0.217736 30.3935 0.529272 32.05 1.13812 33.6111C1.58913 34.9597 2.37135 36.1803 3.41663 37.1665C4.42745 38.1863 5.67855 38.9494 7.06093 39.3894C8.66163 39.9805 10.3595 40.2816 12.071 40.2777C14.8733 40.5207 17.6885 40.5921 20.5 40.4913C23.3114 40.5921 26.1266 40.5207 28.9289 40.2777C30.6404 40.2816 32.3383 39.9805 33.939 39.3894C35.3112 38.9283 36.5577 38.1683 37.5839 37.1671C38.6101 36.1659 39.3891 34.9498 39.8618 33.6111C40.4677 32.0494 40.7762 30.393 40.7723 28.7232C40.7723 26.5003 40.9912 25.834 40.9912 20.4998C41.0945 17.7569 41.0214 15.0104 40.7723 12.2765C40.7762 10.6067 40.4677 8.95024 39.8618 7.38858C39.4108 6.03992 38.6286 4.81933 37.5833 3.83316C36.5725 2.81338 35.3214 2.05024 33.939 1.61023C32.3388 1.01623 30.641 0.712294 28.9289 0.713368C26.1266 0.470384 23.3114 0.399064 20.5 0.49983ZM20.5 10.2777C19.1177 10.2555 17.745 10.5047 16.4635 11.0106C15.182 11.5164 14.0179 12.2685 13.0404 13.2222C12.0629 14.1759 11.2919 15.3116 10.7735 16.5619C10.255 17.8121 9.99954 19.1513 10.0223 20.4998C10.0223 22.5216 10.6368 24.4979 11.7881 26.1789C12.9394 27.8599 14.5758 29.1701 16.4903 29.9438C18.4049 30.7175 20.5116 30.9199 22.544 30.5255C24.5765 30.1311 26.4434 29.1575 27.9088 27.7279C29.3741 26.2983 30.372 24.4769 30.7763 22.4941C31.1805 20.5112 30.9731 18.4558 30.18 16.588C29.387 14.7202 28.0441 13.1237 26.321 12.0005C24.598 10.8773 22.5722 10.2777 20.5 10.2777ZM20.5 27.1665C19.598 27.1827 18.702 27.0214 17.8654 26.6921C17.0288 26.3628 16.2689 25.8723 15.631 25.25C14.9931 24.6277 14.4904 23.8863 14.1529 23.0701C13.8154 22.254 13.65 21.3798 13.6666 20.4998C13.65 19.6199 13.8154 18.7457 14.1529 17.9295C14.4904 17.1134 14.9931 16.372 15.631 15.7496C16.2689 15.1273 17.0288 14.6369 17.8654 14.3076C18.702 13.9783 19.598 13.8169 20.5 13.8332C21.4019 13.8169 22.2979 13.9783 23.1345 14.3076C23.9711 14.6369 24.731 15.1273 25.3689 15.7496C26.0068 16.372 26.5095 17.1134 26.847 17.9295C27.1845 18.7457 27.3499 19.6199 27.3333 20.4998C27.3499 21.3798 27.1845 22.254 26.847 23.0701C26.5095 23.8863 26.0068 24.6277 25.3689 25.25C24.731 25.8723 23.9711 26.3628 23.1345 26.6921C22.2979 27.0214 21.4019 27.1827 20.5 27.1665ZM31.4438 7.38858C30.9481 7.38858 30.4636 7.53197 30.0515 7.80064C29.6393 8.0693 29.3181 8.45116 29.1284 8.89792C28.9387 9.34469 28.8891 9.8363 28.9858 10.3106C29.0825 10.7849 29.3212 11.2205 29.6717 11.5625C30.0222 11.9044 30.4687 12.1373 30.9549 12.2316C31.441 12.326 31.9449 12.2775 32.4029 12.0925C32.8608 11.9074 33.2522 11.594 33.5276 11.192C33.803 10.7899 33.9499 10.3172 33.9499 9.83359C33.9442 9.18686 33.6783 8.56819 33.2096 8.11087C32.7408 7.65354 32.1067 7.39415 31.4438 7.38858Z" fill="#191919"/>
</g>
<defs>
<clipPath id="clip0_200_9">
<rect width="41" height="40" fill="white" transform="translate(0 0.5)"/>
</clipPath>
</defs>
</svg>
